HIERARCHY
ROOT Hips
{
	OFFSET -3.958830 18.904000 13.208200
	CHANNELS 6 Xposition Yposition Zposition Zrotation Yrotation Xrotation 
	JOINT LHipJoint
	{
		OFFSET 0.000000 0.000000 0.000000
		CHANNELS 3 Zrotation Yrotation Xrotation
		JOINT LeftUpLeg
		{
			OFFSET 1.800000 -1.400000 0.085000
			CHANNELS 3 Zrotation Yrotation Xrotation
			JOINT LeftLeg
			{
				OFFSET 2.215000 -6.000000 0.000000
				CHANNELS 3 Zrotation Yrotation Xrotation
				JOINT LeftFoot
				{
					OFFSET 2.500000 -6.900000 0.000000
					CHANNELS 3 Zrotation Yrotation Xrotation
					JOINT LeftToeBase
					{
						OFFSET 0.200000 -0.500000 1.950000
						CHANNELS 3 Zrotation Yrotation Xrotation
						End Site
						{
							OFFSET 0.000000 0.000000 0.000000
						}
					}
				}
			}
		}
	}
	JOINT RHipJoint
	{
		OFFSET 0.000000 0.000000 0.000000
		CHANNELS 3 Zrotation Yrotation Xrotation
		JOINT RightUpLeg
		{
			OFFSET -1.800000 -1.400000 0.085000
			CHANNELS 3 Zrotation Yrotation Xrotation
			JOINT RightLeg
			{
				OFFSET -2.215000 -6.000000 0.000000
				CHANNELS 3 Zrotation Yrotation Xrotation
				JOINT RightFoot
				{
					OFFSET -2.500000 -6.900000 0.000000
					CHANNELS 3 Zrotation Yrotation Xrotation
					JOINT RightToeBase
					{
						OFFSET -0.200000 -0.500000 1.950000
						CHANNELS 3 Zrotation Yrotation Xrotation
						End Site
						{
							OFFSET 0.000000 0.000000 0.000000
						}
					}
				}
			}
		}
	}
	JOINT LowerBack
	{
		OFFSET 0.000000 0.000000 0.000000
		CHANNELS 3 Zrotation Yrotation Xrotation
		JOINT Spine
		{
			OFFSET -0.087000 1.940000 -0.288900
			CHANNELS 3 Zrotation Yrotation Xrotation
			JOINT Spine1
			{
				OFFSET 0.000000 1.950000 0.060000
				CHANNELS 3 Zrotation Yrotation Xrotation
				JOINT Neck
				{
					OFFSET 0.000000 0.000000 0.000000
					CHANNELS 3 Zrotation Yrotation Xrotation
					JOINT Neck1
					{
						OFFSET 0.000000 1.600000 0.340000
						CHANNELS 3 Zrotation Yrotation Xrotation
						JOINT Head
						{
							OFFSET 0.000000 1.667000 -0.240000
							CHANNELS 3 Zrotation Yrotation Xrotation
							End Site
							{
								OFFSET 0.000000 0.000000 0.000000
							}
						}
					}
				}
				JOINT LeftShoulder
				{
					OFFSET 0.000000 0.000000 0.000000
					CHANNELS 3 Zrotation Yrotation Xrotation
					JOINT LeftArm
					{
						OFFSET 2.700000 1.550000 -0.730000
						CHANNELS 3 Zrotation Yrotation Xrotation
						JOINT LeftForeArm
						{
							OFFSET 5.450000 0.000000 0.000000
							CHANNELS 3 Zrotation Yrotation Xrotation
							JOINT LeftHand
							{
								OFFSET 3.450000 0.000000 0.000000
								CHANNELS 3 Zrotation Yrotation Xrotation
								JOINT LeftHandIndex1
								{
									OFFSET 0.750000 0.000000 0.000000
									CHANNELS 3 Zrotation Yrotation Xrotation
									End Site
									{
										OFFSET 0.000000 0.000000 0.000000
									}
								}
							}
						}
					}
				}
				JOINT RightShoulder
				{
					OFFSET 0.000000 0.000000 0.000000
					CHANNELS 3 Zrotation Yrotation Xrotation
					JOINT RightArm
					{
						OFFSET -2.700000 1.550000 -0.730000
						CHANNELS 3 Zrotation Yrotation Xrotation
						JOINT RightForeArm
						{
							OFFSET -5.450000 0.000000 0.000000
							CHANNELS 3 Zrotation Yrotation Xrotation
							JOINT RightHand
							{
								OFFSET -3.450000 0.000000 0.000000
								CHANNELS 3 Zrotation Yrotation Xrotation
								JOINT RightHandIndex1
								{
									OFFSET -0.750000 0.000000 0.000000
									CHANNELS 3 Zrotation Yrotation Xrotation
									End Site
									{
										OFFSET 0.000000 0.000000 0.000000
									}
								}
							}
						}
					}
				}
			}
		}
	}
}
MOTION
Frames: 4
Frame Time: 0.016667
-0.102090 17.831790 -0.607000 -20.127873 31.059698 -15.391698 -15.280117 12.811014 1.869338 21.684991 -0.308540 -11.140404 -4.363928 7.109255 17.598305 -0.547207 5.350486 2.686362 0.569760 0.150620 0.514720 18.345570 -8.699056 5.127843 -14.174438 10.274565 -41.208024 21.988523 -33.831549 71.348482 -2.946060 -14.554941 -0.119499 0.144790 0.178910 0.186260 -4.055655 -2.748289 -8.791425 19.257746 -12.466322 42.948800 -10.013339 -3.890749 11.711509 4.946220 0.021765 -11.367364 -2.934867 -3.537893 37.064027 8.208330 -4.795470 -19.321700 -9.042457 -19.578550 1.255615 1.205537 -12.205883 -9.241631 -172.694941 -85.411006 168.145909 -3.283170 3.141617 0.782270 -0.056780 0.090110 0.188740 -0.888001 17.194103 11.289035 -13.150135 -0.844328 -3.818094 -18.491668 5.429876 -0.864272 2.346024 -1.219524 -0.270510 0.328910 -0.087400 -0.251810 
-0.173420 17.775190 -0.631730 -21.469599 35.730697 -16.007986 -15.278845 12.484848 1.765414 21.965358 -0.493183 -12.954732 -4.322478 7.167904 18.604953 -0.587995 5.371654 2.662313 0.541200 0.114350 0.493900 18.388609 -8.488368 5.387157 -13.115645 11.080283 -41.545177 28.518770 -41.343237 72.792007 -3.412344 -15.841140 -0.344012 0.122320 0.204780 0.197310 -4.322026 -2.416660 -8.944107 21.910547 -13.858295 41.145703 -11.620729 -4.289952 11.103048 5.315743 0.409736 -11.120488 -2.280675 -4.188490 37.764820 8.200890 -5.481300 -20.001660 -8.733521 -19.602495 1.267118 -0.517445 -10.832455 -10.348784 -146.786833 -89.494634 144.752780 -3.258117 2.638974 0.807950 -0.046680 0.093240 0.183970 -1.999771 16.773008 10.769856 -11.827935 0.310265 -4.638645 -21.641852 9.629753 -1.492899 2.249770 -1.243024 -0.285390 0.356720 -0.057580 -0.251220 
-0.269490 17.721560 -0.652980 -21.582063 39.210773 -17.361556 -15.338283 12.461480 1.632149 21.997797 -0.482264 -13.470156 -3.504361 7.409213 21.399406 -0.521663 5.509465 2.597371 0.600730 0.216430 0.464820 18.332106 -8.351329 5.534419 -11.970075 11.841132 -39.886018 36.004622 -47.715231 71.753895 -3.684569 -16.399139 -0.414660 0.181150 0.194430 0.176720 -4.349511 -2.419343 -9.001897 21.634323 -13.659107 41.481347 -11.548798 -4.150449 11.736571 5.532642 0.310943 -11.183060 -2.183782 -4.332296 37.335765 9.618190 -6.554870 -19.123630 -8.043482 -19.923042 1.797232 -1.522860 -9.829034 -11.231370 28.319380 -84.865830 -27.511106 -3.189383 2.796661 0.749520 -0.062950 0.086420 0.238060 -3.058157 17.753620 10.230796 -11.268722 1.964507 -6.366534 -26.519945 13.586402 -2.957772 2.218183 -1.409745 -0.246380 0.339630 -0.109660 -0.205500 
-0.357550 17.649750 -0.667770 -21.536707 42.113165 -18.788277 -15.401861 12.409312 1.651705 22.624277 -0.512177 -14.350138 -3.658608 8.146210 24.922602 -0.468738 5.967558 2.403183 0.586640 0.213140 0.454450 18.271454 -8.266077 5.556186 -10.070838 12.634377 -37.740121 40.308085 -52.412707 72.085443 -3.859808 -16.719035 -0.441635 0.172040 0.183410 0.160960 -4.340261 -2.371387 -9.091404 21.541341 -13.449590 43.076689 -11.850147 -3.626549 10.985801 5.801344 0.699182 -11.271278 -1.306428 -5.704665 36.873845 10.419840 -7.749600 -20.970260 -8.561219 -20.183508 2.360860 -1.363044 -7.067980 -11.823742 23.979286 -81.427622 -22.305356 -3.176911 2.847309 0.768740 -0.084790 0.097660 0.222530 -3.171688 18.569833 9.756264 -10.207691 1.938011 -8.702261 -32.549021 18.737029 -5.125854 2.161352 -1.452736 -0.249090 0.358420 -0.097780 -0.203230 
